# xmcd CD database file generated by Grip 2.96
# 
# Track frame offsets:
#       150
#       11442
#       23785
#       32560
#       44752
#       55675
#       72670
#       85677
#       94215
#       102305
#       113920
#       127967
# 
# Disc length: 1834 seconds
# 
# Revision: 0
# Processed by: cddbd v1.4PL0 Copyright (c) Steve Scherf et al.
# Submitted via: Grip 2.96
# 
DISCID=9907280c
DTITLE=Willie Nelson - December Days
DYEAR=1900
DGENRE=
TTITLE0=I Don't Feel Anything
TTITLE1=I Can't Find The Time
TTITLE2=Why Are You Picking On Me
TTITLE3=Follow Me Around
TTITLE4=Who Do You Know In Dallas
TTITLE5=I Let My Mind Wonder
TTITLE6=Pages
TTITLE7=Slow Down Ole World
TTITLE8=Things To Remember
TTITLE9=December Days
TTITLE10=Home Is Where You're Happy
TTITLE11=Ashamed
EXTD=
EXTT0=
EXTT1=
EXTT2=
EXTT3=
EXTT4=
EXTT5=
EXTT6=
EXTT7=
EXTT8=
EXTT9=
EXTT10=
EXTT11=
PLAYORDER=
